<svg xmlns="http://www.w3.org/2000/svg" width="1126.728" height="603.154" viewBox="0 0 1126.728 603.154">
  <g id="锦州石化" transform="translate(-187.711 -137.271)">
    <g id="形状_1" data-name="形状 1" fill="rgba(22,233,241,0.12)" fill-rule="evenodd">
      <path d="M373.825,137.271,524.013,170.4l-20.566,39.638L351.568,175.259Zm132.808,93.163,27.526,6.348L504.8,294.552l-29.029-7.122Zm89.623-18.689,132.2,8.88L713.8,258.089,588.5,228.849Zm4.757,30.055,49.7,11.562L638.505,281.2l-49.712-11.474Zm-13.24,31.647L671,293.225l-13.179,31.3L573.217,304.5ZM540.513,238.4l31.027,6.989-29.072,58.443-31.426-7.291Zm174.992,42.848,51.154,13.9-9.3,24.706-51.753-12.8Zm7.229,33.759L756.3,322.9l-12.154,31.253-32.832-8.41Zm54.713-17.165L808,305.557l-7.184,18.775-30.9-7.456Zm-8.478,21.879,31.306,7.595-11.167,30.412-31.865-7.641ZM811.734,305.8l32.243,8.238-20.762,59.324-32.659-7.785Zm-18.759-50.768,34.817,7.9L815.011,297.5l-35.385-8.26Zm37.693,8.8,28.55,6.29-12.69,35.563-27.8-7.392Zm60.02,25.856,59.177,12.124-9.27,25.5L882.251,314.17Zm97.433,21.265,30.858,6.587-5.459,23.489-32.411-4.754Zm-8.585,33.98,30.271,4.15,98.7,1.246-12.766,63.328L1039.887,400.1l6.163-28.529-10.484-2.208-11.76,52.558-61.143-15.144Zm53.281,89.563,56.34,14.053-4.577,22.551-59.762,1.526Zm-10.126,45.285,61-1.919-12.857,68.517L1011.2,532.277ZM851.074,315.68l35.553,7.885-7.341,23.666-36.439-8.56Zm1.65,41.816,26.4,5.975,12.957-39.907,46.42,11.3-6.839,24.883,35.506,9.022-9.489,36.366-117.242-27.42ZM352.84,183.542,448.251,205.2,430.03,239.77,334.809,217Zm-49.169,34.649,93.647,22.376-8.1,15.277-94.54-21.511ZM324.278,247.9l31.675,8.012-31.675,51.512L292.8,299.6Zm39.915,11.54,21.944,4.729L356.43,315.6l-21.62-5.553Zm-10.836,64.444,62.617,16.231-18.657,35.413-65.449-17.323Zm47.89-42.594L441.5,291.641l-19.978,33.674-39.467-10.491Zm70.86,13.51,50.707,12.625L503.9,344.37l-50-12.04Zm-26.486,52.215,134.414,34.428-17.972,37.86L426.936,384.252Zm140.456,35.3,37.706,10.463-16.243,37.635-38.449-9.869ZM644.443,397.9l76.4,20.622-15.705,37.957L629.118,436.3ZM532.2,309.589l146.779,38.092-15.464,35.375-148.883-35.8Zm156.658,39.359,52.951,13.647L726.1,401.288l-53.318-14.414Zm63.125,15.4L827.079,384.4,814.1,422.555l-76.391-19.622ZM860.87,391.949l160.082,39.9-9.377,38.314L824.749,424.2l3.952-10.087,22.557,5.462Zm-37.952,38.493,185.813,48.273-12.9,49.451L805.652,480.484Zm-92.492-9.674,77.823,20.155-13.162,35.852L717.3,456.463Zm383.019-36.914,41.076,8.471-4.681,32.223-41.465-8.884Zm166.368,52.139,34.627,15.792-14.375,29.976-34.7-16.383ZM218.367,342.516l57.216,15.56L231.555,429.71,187.711,416.13Zm18.988,96.5,3.463,1.315-14.4,26.146,128.038,36.556-27.441,49L194.282,511.148Zm78.767-9.032-15.157,26.2-10.507-2.546-9.183,16.332,78.744,24.209,23.059-46.06Zm-32.292-71.776,128.705,33.22-25.11,46.765L256.682,404.1ZM422.639,393.18l98.473,26.059L503.964,457.1,404.2,429.228Zm-23.176,45.306L447,452.241l-26.9,58.287L370.751,496.24Zm54.606,14.373,43.178,12.156-21.97,45.669-43.412-7.463Zm49.293,14.4,77.224,21.909-15.317,37.439-19.7-5.968L481.6,511.389Zm27.247-45.95,64.369,17.023-16.19,38.211L513.024,458.9Zm101.044,26.016,33.291,9.288-14.992,38.63-34.979-8.983ZM677.4,458.993l92.629,25.13-14.619,40.485-93.64-26.143Zm-22.635,49.766,119.25,32.03-8.948,24.493L645.826,531.336ZM644.793,536.2,770.16,571.9l9.692-28.994L823.078,554.7l-19.645,66.362L633,571.5ZM900.82,515.049,945.9,526.584l-9.844,39.244-46.387-12.413Zm-66.5,42.5,42.371,11.428-24.2,88.8L826.883,651l-11.377-25.278Zm-54.078,63.714,27.143,7.562,15.919,32.421,73.585,22.1-16.535,57.081L757,703.978Zm176.661-93.094,57.954,14.928-9.268,41.049-59.2-16.243Zm74.627,101.823,27.41-12.362,35.251,10.55L1075.028,691.5l-55.363-13.723Zm-5.458-83.958,99.772,23.354,53.573,24.379-5.029,18.779-34.682-1.015-83.562-27.291-4.592,12.6-34.058-9.671ZM401.021,516.824l136.369,39.8-24.2,52.02L373.832,566.424Zm146,41.734,56.744,17-22.361,53.1-58.5-18.043Z" stroke="none"/>
      <path d="M 374.5675048828125 138.9707641601562 L 353.8958740234375 174.2534790039062 L 502.649658203125 208.3143310546875 L 521.7810668945312 171.4411010742188 L 374.5675048828125 138.9707641601562 M 353.6195068359375 185.2567138671875 L 337.0550537109375 215.9945678710938 L 429.246337890625 238.0398559570312 L 446.0126953125 206.2264404296875 L 353.6195068359375 185.2567138671875 M 597.1924438476562 213.3114013671875 L 590.6173706054688 227.8040771484375 L 712.8806762695312 256.3328857421875 L 726.309326171875 221.9844360351562 L 597.1924438476562 213.3114013671875 M 304.4278564453125 219.9141845703125 L 296.9647216796875 233.3135986328125 L 388.43310546875 254.1259765625 L 395.08544921875 241.5755004882812 L 304.4278564453125 219.9141845703125 M 507.4087524414062 232.1519165039062 L 478.0191650390625 286.4359741210938 L 504.0062255859375 292.8114624023438 L 531.953369140625 237.812255859375 L 507.4087524414062 232.1519165039062 M 541.3229370117188 240.1206665039062 L 513.24560546875 295.512939453125 L 541.6527709960938 302.103515625 L 569.3457641601562 246.4324340820312 L 541.3229370117188 240.1206665039062 M 601.8870849609375 243.5438842773438 L 590.8919677734375 268.66650390625 L 637.631103515625 279.4539794921875 L 648.61572265625 254.4144287109375 L 601.8870849609375 243.5438842773438 M 324.9837646484375 249.6301879882812 L 295.1446533203125 298.637939453125 L 323.575439453125 305.7076416015625 L 353.6063232421875 256.8696899414062 L 324.9837646484375 249.6301879882812 M 793.9031372070312 256.7810668945312 L 781.6524658203125 288.17236328125 L 814.0632934570312 295.7385864257812 L 825.7920532226562 264.0158081054688 L 793.9031372070312 256.7810668945312 M 364.943115234375 261.1399536132812 L 337.1014404296875 309.0860595703125 L 355.7000732421875 313.8632202148438 L 383.8089599609375 265.205810546875 L 364.943115234375 261.1399536132812 M 831.6485595703125 265.5877075195312 L 820.673583984375 297.2622680664062 L 845.5794067382812 303.8849487304688 L 857.2330932617188 271.224853515625 L 831.6485595703125 265.5877075195312 M 588.6127319335938 275.1889038085938 L 575.35888671875 303.4636840820312 L 656.9328002929688 322.769287109375 L 668.93212890625 294.2747192382812 L 588.6127319335938 275.1889038085938 M 401.9813232421875 283.0309448242188 L 384.32958984375 313.8756713867188 L 420.8148193359375 323.57373046875 L 439.1934814453125 292.5958251953125 L 401.9813232421875 283.0309448242188 M 716.4202270507812 283.0517578125 L 707.6168212890625 306.0008544921875 L 756.4271850585938 318.0777587890625 L 764.6748657226562 296.1631469726562 L 716.4202270507812 283.0517578125 M 891.6770629882812 291.42529296875 L 884.2151489257812 313.0751342773438 L 939.63720703125 325.5632934570312 L 947.86181640625 302.9365234375 L 891.6770629882812 291.42529296875 M 472.925537109375 296.5528564453125 L 456.0623779296875 331.3080444335938 L 503.1038208007812 342.635009765625 L 520.6180419921875 308.4270629882812 L 472.925537109375 296.5528564453125 M 778.3577880859375 299.6197509765625 L 771.9417114257812 315.822998046875 L 799.8841552734375 322.5646362304688 L 805.9932861328125 306.5974731445312 L 778.3577880859375 299.6197509765625 M 812.6904296875 307.5932006835938 L 792.52734375 364.505126953125 L 822.2467041015625 371.589599609375 L 842.0208740234375 315.0867919921875 L 812.6904296875 307.5932006835938 M 533.0357666015625 311.3547973632812 L 516.7709350585938 346.2307739257812 L 662.6476440429688 381.3046569824219 L 676.904052734375 348.6917724609375 L 533.0357666015625 311.3547973632812 M 989.1895141601562 312.7191162109375 L 983.007568359375 335.0420532226562 L 1012.37060546875 339.3488159179688 L 1017.171630859375 318.6927490234375 L 989.1895141601562 312.7191162109375 M 723.6801147460938 316.7709350585938 L 713.3035278320312 344.699951171875 L 743.2328491210938 352.3662109375 L 754.2791137695312 323.9614868164062 L 723.6801147460938 316.7709350585938 M 852.0410766601562 317.4305419921875 L 844.82568359375 337.594970703125 L 878.2679443359375 345.4505004882812 L 884.712158203125 324.676513671875 L 852.0410766601562 317.4305419921875 M 769.8947143554688 321.4901123046875 L 759.2614135742188 349.029052734375 L 788.1611938476562 355.9586791992188 L 798.2880859375 328.378173828125 L 769.8947143554688 321.4901123046875 M 893.0776977539062 325.351318359375 L 880.1278686523438 365.236572265625 L 853.4456787109375 359.197265625 L 842.7926025390625 376.7251281738281 L 956.5955200195312 403.3408813476562 L 965.3344116210938 369.85009765625 L 929.8094482421875 360.8233032226562 L 936.6445922851562 335.9547729492188 L 893.0776977539062 325.351318359375 M 354.0455322265625 325.6156005859375 L 334.220703125 357.2791137695312 L 396.54736328125 373.77587890625 L 413.7650146484375 341.0951538085938 L 354.0455322265625 325.6156005859375 M 219.2454833984375 344.3092041015625 L 189.72998046875 415.1847534179688 L 230.88720703125 427.93310546875 L 273.256103515625 358.9979248046875 L 219.2454833984375 344.3092041015625 M 980.636474609375 346.6021118164062 L 964.514404296875 405.69384765625 L 1022.677124023438 420.0998229980469 L 1034.426147460938 367.5937194824219 L 1047.834594726562 370.4183044433594 L 1041.661865234375 398.9918212890625 L 1094.579833984375 411.8366088867188 L 1106.6796875 351.8109130859375 L 1009.694702148438 350.5863037109375 L 1009.602783203125 350.57373046875 L 980.636474609375 346.6021118164062 M 446.419921875 348.771484375 L 429.109375 383.2659301757812 L 561.239990234375 417.5440979003906 L 577.8995971679688 382.4483947753906 L 446.419921875 348.771484375 M 689.7389526367188 350.72314453125 L 674.831298828125 385.8749084472656 L 725.2057495117188 399.4932861328125 L 739.7783813476562 363.6192626953125 L 689.7389526367188 350.72314453125 M 284.5474853515625 359.9425048828125 L 258.98681640625 403.1460266113281 L 386.6622314453125 436.4444885253906 L 410.3096923828125 392.4031066894531 L 284.5474853515625 359.9425048828125 M 752.9204711914062 366.1453552246094 L 739.6954345703125 401.8934631347656 L 813.1296997070312 420.7560119628906 L 825.1425170898438 385.4324951171875 L 752.9204711914062 366.1453552246094 M 586.9223022460938 384.1140747070312 L 571.180908203125 419.5394287109375 L 606.6701049804688 428.64892578125 L 621.7234497070312 393.7713928222656 L 586.9223022460938 384.1140747070312 M 1114.67919921875 385.6400146484375 L 1110.080810546875 414.4940185546875 L 1148.586669921875 422.7445678710938 L 1152.833618164062 393.5081787109375 L 1114.67919921875 385.6400146484375 M 861.836669921875 393.7356567382812 L 852.2266235351562 421.3525695800781 L 829.6194458007812 415.8785095214844 L 826.77001953125 423.1521606445312 L 1010.475769042969 468.3496398925781 L 1019.140502929688 432.9452209472656 L 861.836669921875 393.7356567382812 M 423.4237060546875 394.939453125 L 406.375732421875 428.2773132324219 L 503.1286010742188 455.3138427734375 L 519.0133056640625 420.2359619140625 L 423.4237060546875 394.939453125 M 645.3406982421875 399.6945495605469 L 631.138427734375 435.286376953125 L 704.2520141601562 454.6908569335938 L 718.802734375 419.5238647460938 L 645.3406982421875 399.6945495605469 M 731.3651733398438 422.5602722167969 L 719.2734985351562 455.4290771484375 L 794.1484985351562 474.9796142578125 L 806.2703857421875 441.9596862792969 L 731.3651733398438 422.5602722167969 M 531.4378051757812 423.0811767578125 L 515.1406860351562 457.9169006347656 L 577.9169311523438 474.7571105957031 L 592.9229736328125 439.3410949707031 L 531.4378051757812 423.0811767578125 M 316.843505859375 431.7339477539062 L 301.7020263671875 457.9080200195312 L 291.2093505859375 455.3653869628906 L 283.4951171875 469.0852661132812 L 359.24658203125 492.3741455078125 L 380.9161376953125 449.0898132324219 L 316.843505859375 431.7339477539062 M 823.8839721679688 432.2421264648438 L 807.6036376953125 479.4265747070312 L 994.7593994140625 526.3489990234375 L 1006.900756835938 479.7887878417969 L 823.8839721679688 432.2421264648438 M 1033.965576171875 436.3323974609375 L 1026.676025390625 471.0816040039062 L 1083.34814453125 469.6347961425781 L 1087.40185546875 449.6608581542969 L 1033.965576171875 436.3323974609375 M 1280.515869140625 437.962158203125 L 1267.382446289062 464.6718139648438 L 1299.356323242188 479.7674560546875 L 1312.425415039062 452.5146484375 L 1280.515869140625 437.962158203125 M 400.2486572265625 440.2744140625 L 372.8939208984375 495.2983703613281 L 419.2861328125 508.7289733886719 L 444.91162109375 453.1971435546875 L 400.2486572265625 440.2744140625 M 237.998779296875 440.8648986816406 L 196.5496826171875 510.2764892578125 L 326.2978515625 550.2385864257812 L 352.22021484375 503.9541931152344 L 224.196044921875 467.4021606445312 L 238.6715087890625 441.1203308105469 L 237.998779296875 440.8648986816406 M 632.5157470703125 449.1246337890625 L 617.0419311523438 485.2435302734375 L 649.0366821289062 493.4603576660156 L 662.9481201171875 457.614990234375 L 632.5157470703125 449.1246337890625 M 454.9163818359375 454.6549987792969 L 434.01318359375 502.0673828125 L 474.41650390625 509.0131530761719 L 495.121337890625 465.9742736816406 L 454.9163818359375 454.6549987792969 M 678.2973022460938 460.7921752929688 L 663.775146484375 497.468994140625 L 754.4688110351562 522.7896728515625 L 768.061767578125 485.1452331542969 L 678.2973022460938 460.7921752929688 M 504.1552124023438 469.0450439453125 L 483.8547973632812 510.1999816894531 L 545.8954467773438 519.1728515625 L 546.0037231445312 519.2056884765625 L 564.3980102539062 524.77783203125 L 578.5625 490.1551818847656 L 504.1552124023438 469.0450439453125 M 1081.873657226562 479.4242858886719 L 1023.906860351562 481.2478332519531 L 1012.9833984375 531.156982421875 L 1069.650756835938 544.5616455078125 L 1081.873657226562 479.4242858886719 M 655.6636962890625 510.5548095703125 L 647.8306274414062 530.3468017578125 L 764.1325073242188 563.4573974609375 L 772.0399780273438 541.8126220703125 L 655.6636962890625 510.5548095703125 M 901.8550415039062 516.8623046875 L 891.5391845703125 552.36181640625 L 934.973876953125 563.9847412109375 L 944.0839233398438 527.6668701171875 L 901.8550415039062 516.8623046875 M 401.7576904296875 518.6009521484375 L 376.0361328125 565.5244140625 L 512.3804931640625 606.8302001953125 L 535.2935180664062 557.5740966796875 L 401.7576904296875 518.6009521484375 M 957.9749755859375 529.9896240234375 L 948.2222900390625 566.8457641601562 L 1004.475463867188 582.2802734375 L 1013.076782226562 544.18310546875 L 957.9749755859375 529.9896240234375 M 645.76123046875 538.0321044921875 L 634.9164428710938 570.4940185546875 L 802.4190673828125 619.203857421875 L 821.2050170898438 555.7431640625 L 780.8248291015625 544.728515625 L 771.128173828125 573.737548828125 L 769.7491455078125 573.3447265625 L 645.76123046875 538.0321044921875 M 1027.229858398438 547.8414306640625 L 1019.251708984375 586.0992431640625 L 1050.624267578125 595.0079345703125 L 1055.235107421875 582.3601684570312 L 1056.613525390625 582.810302734375 L 1139.9697265625 610.0336303710938 L 1173.25 611.0079956054688 L 1177.643310546875 594.6019287109375 L 1125.361572265625 570.810791015625 L 1027.229858398438 547.8414306640625 M 835.3728637695312 559.38134765625 L 817.0960693359375 625.6041870117188 L 827.9578857421875 649.7364501953125 L 851.4424438476562 655.938720703125 L 874.85205078125 570.0293579101562 L 835.3728637695312 559.38134765625 M 547.8355102539062 560.3677978515625 L 524.9885864257812 609.6929931640625 L 580.54833984375 626.8299560546875 L 601.7337646484375 576.519775390625 L 547.8355102539062 560.3677978515625 M 1059.049072265625 619.22412109375 L 1032.813110351562 631.0567626953125 L 1021.483032226562 676.6817626953125 L 1074.005615234375 689.7005004882812 L 1092.321899414062 629.1817626953125 L 1059.049072265625 619.22412109375 M 781.2842407226562 623.1056518554688 L 758.8403930664062 702.9591064453125 L 879.3364868164062 738.5588989257812 L 895.0388793945312 684.3527221679688 L 822.2494506835938 662.4902954101562 L 821.961181640625 661.9030151367188 L 806.3381958007812 630.08544921875 L 781.2842407226562 623.1056518554688 M 373.8248291015625 137.2708740234375 L 524.0125732421875 170.3971557617188 L 503.4464721679688 210.0355834960938 L 351.5679931640625 175.25927734375 L 373.8248291015625 137.2708740234375 Z M 352.83984375 183.5415649414062 L 448.251220703125 205.1962890625 L 430.0302734375 239.7695922851562 L 334.8094482421875 216.9998779296875 L 352.83984375 183.5415649414062 Z M 596.255859375 211.7451782226562 L 728.4512939453125 220.625 L 713.8047485351562 258.0887451171875 L 588.4960327148438 228.8493041992188 L 596.255859375 211.7451782226562 Z M 303.6707763671875 218.1910400390625 L 397.31787109375 240.5665893554688 L 389.2203369140625 255.8434448242188 L 294.680419921875 234.3321533203125 L 303.6707763671875 218.1910400390625 Z M 506.6331787109375 230.4337158203125 L 534.1596069335938 236.78173828125 L 504.804443359375 294.5518798828125 L 475.775146484375 287.4299926757812 L 506.6331787109375 230.4337158203125 Z M 540.5130615234375 238.4007568359375 L 571.5400390625 245.38916015625 L 542.468017578125 303.8324584960938 L 511.04248046875 296.5415649414062 L 540.5130615234375 238.4007568359375 Z M 601.0127563476562 241.8004150390625 L 650.7150268554688 253.3627319335938 L 638.5051879882812 281.1951293945312 L 588.7929077148438 269.721435546875 L 601.0127563476562 241.8004150390625 Z M 324.2783203125 247.9046020507812 L 355.9534912109375 255.9161376953125 L 324.2783203125 307.4281616210938 L 292.802001953125 299.6011352539062 L 324.2783203125 247.9046020507812 Z M 792.975341796875 255.032470703125 L 827.7921752929688 262.9314575195312 L 815.0111694335938 297.5001831054688 L 779.625732421875 289.2395629882812 L 792.975341796875 255.032470703125 Z M 364.193359375 259.4440307617188 L 386.1376953125 264.1732788085938 L 356.429443359375 315.5993041992188 L 334.8094482421875 310.0460205078125 L 364.193359375 259.4440307617188 Z M 830.6681518554688 263.8357543945312 L 859.2177734375 270.1261596679688 L 846.5281982421875 305.6892700195312 L 818.7276000976562 298.296875 L 830.6681518554688 263.8357543945312 Z M 587.7724609375 273.4474487304688 L 671.0018920898438 293.2247314453125 L 657.8226318359375 324.5213012695312 L 573.2173461914062 304.498291015625 L 587.7724609375 273.4474487304688 Z M 715.5053100585938 281.2487182617188 L 766.6596069335938 295.1480102539062 L 757.361328125 319.8541259765625 L 705.608154296875 307.0491333007812 L 715.5053100585938 281.2487182617188 Z M 401.247314453125 281.2935791015625 L 441.5040283203125 291.6409912109375 L 421.52587890625 325.3148803710938 L 382.05859375 314.8241577148438 L 401.247314453125 281.2935791015625 Z M 890.6880493164062 289.6915893554688 L 949.8651733398438 301.8158569335938 L 940.5957641601562 327.31689453125 L 882.2511596679688 314.170166015625 L 890.6880493164062 289.6915893554688 Z M 472.107177734375 294.8032836914062 L 522.8145751953125 307.4281616210938 L 503.9007568359375 344.3697509765625 L 453.899169921875 332.3300170898438 L 472.107177734375 294.8032836914062 Z M 777.4478759765625 297.843017578125 L 807.9976196289062 305.5565795898438 L 800.8140258789062 324.33203125 L 769.9113159179688 316.8761596679688 L 777.4478759765625 297.843017578125 Z M 811.7341918945312 305.8007202148438 L 843.97705078125 314.0384521484375 L 823.2154541015625 373.3625793457031 L 790.55615234375 365.5772705078125 L 811.7341918945312 305.8007202148438 Z M 532.2040405273438 309.5892944335938 L 678.9827270507812 347.6815795898438 L 663.5187377929688 383.056884765625 L 514.6357421875 347.2601318359375 L 532.2040405273438 309.5892944335938 Z M 988.1210327148438 310.9571533203125 L 1018.978454589844 317.5445556640625 L 1013.51904296875 341.0333251953125 L 981.1084594726562 336.2796020507812 L 988.1210327148438 310.9571533203125 Z M 722.73486328125 315.0078735351562 L 756.3029174804688 322.8961791992188 L 744.1488647460938 354.1492919921875 L 711.3170166015625 345.7395629882812 L 722.73486328125 315.0078735351562 Z M 851.074462890625 315.6797485351562 L 886.6276245117188 323.5648803710938 L 879.2863159179688 347.2305908203125 L 842.8474731445312 338.671142578125 L 851.074462890625 315.6797485351562 Z M 768.969482421875 319.72216796875 L 800.2757568359375 327.31689453125 L 789.1093139648438 357.7285766601562 L 757.24462890625 350.0880126953125 L 768.969482421875 319.72216796875 Z M 892.0806274414062 323.5648803710938 L 938.50048828125 334.8627319335938 L 931.6611938476562 359.7461547851562 L 967.1670532226562 368.7680053710938 L 957.677734375 405.1344299316406 L 840.43603515625 377.7144470214844 L 852.7243041992188 357.4960327148438 L 879.1239013671875 363.471435546875 L 892.0806274414062 323.5648803710938 Z M 353.3575439453125 323.8877563476562 L 415.9749755859375 340.1184692382812 L 397.31787109375 375.5314331054688 L 331.869140625 358.2083129882812 L 353.3575439453125 323.8877563476562 Z M 218.367431640625 342.515869140625 L 275.5831298828125 358.0762939453125 L 231.555419921875 429.71044921875 L 187.71142578125 416.1298828125 L 218.367431640625 342.515869140625 Z M 979.535888671875 344.9371337890625 L 1009.806457519531 349.0875854492188 L 1108.507568359375 350.3338623046875 L 1095.742065429688 413.6622924804688 L 1039.886962890625 400.1045837402344 L 1046.050048828125 371.5752868652344 L 1035.56640625 369.3668823242188 L 1023.805908203125 421.9247131347656 L 962.6630249023438 406.7805786132812 L 979.535888671875 344.9371337890625 Z M 445.621337890625 347.0184326171875 L 580.0354614257812 381.447021484375 L 562.0634765625 419.3074340820312 L 426.9361572265625 384.2518615722656 L 445.621337890625 347.0184326171875 Z M 688.8623046875 348.9481811523438 L 741.8135986328125 362.5947265625 L 726.0958862304688 401.2877197265625 L 672.7783203125 386.8737182617188 L 688.8623046875 348.9481811523438 Z M 283.83056640625 358.2083129882812 L 412.53564453125 391.4284362792969 L 387.4256591796875 438.1937255859375 L 256.682373046875 404.0951538085938 L 283.83056640625 358.2083129882812 Z M 751.9876098632812 364.34375 L 827.0790405273438 384.3971557617188 L 814.1024780273438 422.5545959472656 L 737.7116088867188 402.9325866699219 L 751.9876098632812 364.34375 Z M 586.076904296875 382.3227233886719 L 623.782470703125 392.7860107421875 L 607.5391845703125 430.4205932617188 L 569.0899047851562 420.5513000488281 L 586.076904296875 382.3227233886719 Z M 1113.44482421875 383.8538818359375 L 1154.521362304688 392.3245849609375 L 1149.840576171875 424.5473022460938 L 1108.375610351562 415.6627197265625 L 1113.44482421875 383.8538818359375 Z M 860.8701782226562 391.9488830566406 L 1020.95263671875 431.8510131835938 L 1011.575744628906 470.1650085449219 L 824.7485961914062 424.1995849609375 L 828.7001953125 414.1125793457031 L 851.2572021484375 419.5744323730469 L 860.8701782226562 391.9488830566406 Z M 422.6385498046875 393.1800231933594 L 521.1111450195312 419.2394409179688 L 503.9641723632812 457.1048583984375 L 404.20458984375 429.2281494140625 L 422.6385498046875 393.1800231933594 Z M 644.4424438476562 397.8984375 L 720.8411865234375 418.5204467773438 L 705.1360473632812 456.4774475097656 L 629.1181640625 436.3021545410156 L 644.4424438476562 397.8984375 Z M 730.4264526367188 420.767578125 L 808.2490234375 440.9225769042969 L 795.0873413085938 476.7750244140625 L 717.2950439453125 456.4627380371094 L 730.4264526367188 420.767578125 Z M 530.6100463867188 421.3107299804688 L 594.97900390625 438.3333129882812 L 578.7888793945312 476.5440063476562 L 513.0237426757812 458.9020080566406 L 530.6100463867188 421.3107299804688 Z M 316.12255859375 429.9845886230469 L 383.078369140625 448.1214294433594 L 360.0194091796875 494.1809997558594 L 281.275634765625 469.97216796875 L 290.458740234375 453.6400146484375 L 300.96533203125 456.1860046386719 L 316.12255859375 429.9845886230469 Z M 822.91845703125 430.4414367675781 L 1008.731018066406 478.7144470214844 L 995.8358764648438 528.165283203125 L 805.6520385742188 480.4837341308594 L 822.91845703125 430.4414367675781 Z M 1032.8173828125 434.5 L 1089.157348632812 448.552734375 L 1084.58056640625 471.1038818359375 L 1024.818725585938 472.6295776367188 L 1032.8173828125 434.5 Z M 1279.812622070312 435.9928588867188 L 1314.439208984375 451.7844543457031 L 1300.064208984375 481.7604370117188 L 1265.363891601562 465.3775939941406 L 1279.812622070312 435.9928588867188 Z M 399.462890625 438.485595703125 L 447.0047607421875 452.2413024902344 L 420.1077880859375 510.5284423828125 L 370.7508544921875 496.2395935058594 L 399.462890625 438.485595703125 Z M 237.355712890625 439.0161437988281 L 240.818603515625 440.3311462402344 L 226.418212890625 466.4767150878906 L 354.4556884765625 503.0324401855469 L 327.014404296875 552.0288696289062 L 194.2823486328125 511.1477355957031 L 237.355712890625 439.0161437988281 Z M 631.654052734375 447.3268737792969 L 664.9453125 456.6148681640625 L 649.9533081054688 495.2444458007812 L 614.9740600585938 486.2611694335938 L 631.654052734375 447.3268737792969 Z M 454.0692138671875 452.858154296875 L 497.2476196289062 465.0145874023438 L 475.277587890625 510.6831665039062 L 431.8656005859375 503.2201538085938 L 454.0692138671875 452.858154296875 Z M 677.3961791992188 458.9934387207031 L 770.0254516601562 484.1237182617188 L 755.40673828125 524.60888671875 L 661.7671508789062 498.4657287597656 L 677.3961791992188 458.9934387207031 Z M 503.3626098632812 467.2610168457031 L 580.586181640625 489.170166015625 L 565.2694702148438 526.609130859375 L 545.5689086914062 520.6412963867188 L 481.5957641601562 511.3888549804688 L 503.3626098632812 467.2610168457031 Z M 1083.692138671875 477.8663024902344 L 1070.835205078125 546.3831787109375 L 1011.202758789062 532.2771606445312 L 1022.691467285156 479.7853088378906 L 1083.692138671875 477.8663024902344 Z M 654.7611694335938 508.7591552734375 L 774.0108642578125 540.7886962890625 L 765.0628662109375 565.2818603515625 L 645.8260498046875 531.335693359375 L 654.7611694335938 508.7591552734375 Z M 900.8198852539062 515.0491943359375 L 945.9020385742188 526.583740234375 L 936.0580444335938 565.8275756835938 L 889.6712036132812 553.4147338867188 L 900.8198852539062 515.0491943359375 Z M 401.021484375 516.8236083984375 L 537.3900146484375 556.6234130859375 L 513.1914672851562 608.6431884765625 L 373.83251953125 566.4241943359375 L 401.021484375 516.8236083984375 Z M 956.906005859375 528.165283203125 L 1014.860473632812 543.0936279296875 L 1005.5927734375 584.142333984375 L 946.3919067382812 567.8990478515625 L 956.906005859375 528.165283203125 Z M 644.7929077148438 536.1967163085938 L 770.1600341796875 571.9021606445312 L 779.8517456054688 542.9083251953125 L 823.0783081054688 554.6993408203125 L 803.43359375 621.06103515625 L 632.9993286132812 571.4985961914062 L 644.7929077148438 536.1967163085938 Z M 1026.0751953125 546.0305786132812 L 1125.84765625 569.384033203125 L 1179.4208984375 593.7628784179688 L 1174.39208984375 612.5421142578125 L 1139.7099609375 611.5267333984375 L 1056.147705078125 584.2361450195312 L 1051.555908203125 596.8319091796875 L 1017.498046875 587.1605834960938 L 1026.0751953125 546.0305786132812 Z M 834.3236083984375 557.5447387695312 L 876.6947631835938 568.9727172851562 L 852.4984741210938 657.76904296875 L 826.8834838867188 651.004150390625 L 815.5061645507812 625.7265625 L 834.3236083984375 557.5447387695312 Z M 547.020751953125 558.5577392578125 L 603.7644653320312 575.5624389648438 L 581.4037475585938 628.66357421875 L 522.9058837890625 610.6204833984375 L 547.020751953125 558.5577392578125 Z M 1058.942626953125 617.6265869140625 L 1094.193481445312 628.1761474609375 L 1075.028442382812 691.4994506835938 L 1019.665588378906 677.7767333984375 L 1031.532958984375 629.9885864257812 L 1058.942626953125 617.6265869140625 Z M 780.2451782226562 621.259033203125 L 807.3883056640625 628.8208618164062 L 823.3076171875 661.2418823242188 L 896.8928833007812 683.3434448242188 L 880.3576049804688 740.4247436523438 L 756.9959106445312 703.978271484375 L 780.2451782226562 621.259033203125 Z" stroke="none" fill="rgba(22,233,241,0.61)"/>
    </g>
  </g>
</svg>
